<?xml version="1.0" encoding="utf-8"?>
<!-- Generator: Adobe Illustrator 15.0.0, SVG Export Plug-In . SVG Version: 6.00 Build 0)  -->
<!DOCTYPE svg PUBLIC "-//W3C//DTD SVG 1.1//EN" "http://www.w3.org/Graphics/SVG/1.1/DTD/svg11.dtd">
<svg version="1.1" id="图层_1" xmlns="http://www.w3.org/2000/svg" xmlns:xlink="http://www.w3.org/1999/xlink" x="0px" y="0px"
	 width="256px" height="256px" viewBox="0 0 256 256" enable-background="new 0 0 256 256" xml:space="preserve">
<path fill="#00003F" d="M249,240.829c0,4.329-3.642,7.838-8.134,7.838H16.134c-4.492,0-8.134-3.509-8.134-7.838V14.541
	c0-4.328,3.642-7.836,8.134-7.836h224.73c4.492,0,8.135,3.509,8.135,7.836L249,240.829L249,240.829z"/>
<polygon fill="#29ABE2" points="97.229,155.575 41.721,155.575 123.432,12.167 208.246,12.4 "/>
<polygon fill="#00FFFF" points="27.217,250.307 27.217,250.307 221.501,98.873 230.751,98.873 "/>
<polygon fill="#29ABE2" points="27.554,242.73 27.554,242.73 139.734,98.873 209.111,98.873 "/>
</svg>
